<svg width="166" height="81" viewBox="0 0 166 81" fill="none" xmlns="http://www.w3.org/2000/svg">
<path d="M40.36 38.104V40.024C40.36 42.2853 39.7733 44.0667 38.6 45.368C37.448 46.6693 35.7947 47.32 33.64 47.32C31.5067 47.32 29.8533 46.6693 28.68 45.368C27.5067 44.0667 26.92 42.2853 26.92 40.024V38.104C26.92 35.8853 27.496 34.1253 28.648 32.824C29.8213 31.5013 31.4853 30.84 33.64 30.84C35.7947 30.84 37.448 31.5013 38.6 32.824C39.7733 34.1253 40.36 35.8853 40.36 38.104ZM37.64 38.104C37.64 36.5893 37.2987 35.4053 36.616 34.552C35.9333 33.6773 34.9413 33.24 33.64 33.24C32.36 33.24 31.368 33.6773 30.664 34.552C29.9813 35.4053 29.64 36.5893 29.64 38.104V40.024C29.64 41.6027 29.9813 42.8187 30.664 43.672C31.368 44.5253 32.36 44.952 33.64 44.952C34.9413 44.952 35.9333 44.5253 36.616 43.672C37.2987 42.8187 37.64 41.6027 37.64 40.024V38.104ZM57.6725 38.104V40.024C57.6725 42.2853 57.0858 44.0667 55.9125 45.368C54.7605 46.6693 53.1072 47.32 50.9525 47.32C48.8192 47.32 47.1658 46.6693 45.9925 45.368C44.8192 44.0667 44.2325 42.2853 44.2325 40.024V38.104C44.2325 35.8853 44.8085 34.1253 45.9605 32.824C47.1338 31.5013 48.7978 30.84 50.9525 30.84C53.1072 30.84 54.7605 31.5013 55.9125 32.824C57.0858 34.1253 57.6725 35.8853 57.6725 38.104ZM54.9525 38.104C54.9525 36.5893 54.6112 35.4053 53.9285 34.552C53.2458 33.6773 52.2538 33.24 50.9525 33.24C49.6725 33.24 48.6805 33.6773 47.9765 34.552C47.2938 35.4053 46.9525 36.5893 46.9525 38.104V40.024C46.9525 41.6027 47.2938 42.8187 47.9765 43.672C48.6805 44.5253 49.6725 44.952 50.9525 44.952C52.2538 44.952 53.2458 44.5253 53.9285 43.672C54.6112 42.8187 54.9525 41.6027 54.9525 40.024V38.104ZM72.201 47L67.753 39.672C67.3477 40.0773 66.921 40.4933 66.473 40.92C66.025 41.3467 65.5557 41.7733 65.065 42.2V47H62.441V23.32H65.065V39.256C66.4517 37.912 67.6783 36.6 68.745 35.32C69.833 34.04 70.825 32.6533 71.721 31.16H74.729C73.961 32.44 73.1717 33.624 72.361 34.712C71.5717 35.7787 70.6757 36.8667 69.673 37.976L75.369 47H72.201ZM114.182 33.304C113.585 33.304 112.881 33.4533 112.07 33.752C111.281 34.0507 110.321 34.6587 109.19 35.576V47H106.566V23.32H109.19V33.272C110.299 32.3333 111.302 31.6933 112.198 31.352C113.094 31.0107 113.969 30.84 114.822 30.84C116.294 30.84 117.414 31.3093 118.182 32.248C118.971 33.1653 119.366 34.4773 119.366 36.184V47H116.742V36.568C116.742 34.392 115.889 33.304 114.182 33.304ZM136.431 47.16C135.45 47.16 134.661 46.936 134.063 46.488C133.487 46.04 133.082 45.4853 132.847 44.824C131.802 45.7413 130.853 46.392 129.999 46.776C129.146 47.1387 128.293 47.32 127.439 47.32C126.053 47.32 125.029 46.872 124.367 45.976C123.706 45.08 123.375 43.9813 123.375 42.68C123.375 41.8053 123.535 41.0267 123.855 40.344C124.175 39.6613 124.719 39.128 125.487 38.744C126.255 38.3387 127.29 38.136 128.591 38.136C129.167 38.136 129.797 38.1787 130.479 38.264C131.162 38.328 131.855 38.4133 132.559 38.52V36.376C132.559 35.1813 132.293 34.3707 131.759 33.944C131.247 33.496 130.49 33.272 129.487 33.272C128.122 33.272 126.597 33.6453 124.911 34.392L124.079 32.216C125.061 31.768 125.999 31.4267 126.895 31.192C127.791 30.9573 128.698 30.84 129.615 30.84C131.109 30.84 132.25 31.0853 133.039 31.576C133.829 32.0667 134.373 32.7173 134.671 33.528C134.97 34.3387 135.119 35.224 135.119 36.184V43.032C135.119 43.5227 135.215 43.9387 135.407 44.28C135.599 44.6 135.983 44.76 136.559 44.76H136.911V47.16H136.431ZM125.967 42.648C125.967 43.3733 126.138 43.96 126.479 44.408C126.821 44.856 127.311 45.08 127.951 45.08C128.506 45.08 129.146 44.92 129.871 44.6C130.597 44.2587 131.493 43.5867 132.559 42.584V40.568C131.109 40.3333 129.829 40.216 128.719 40.216C127.738 40.216 127.034 40.4187 126.607 40.824C126.181 41.2293 125.967 41.8373 125.967 42.648ZM148.949 33.464C147.989 33.464 147.05 33.6347 146.133 33.976C145.237 34.3173 144.277 34.968 143.253 35.928V47H140.629V31.16H143.125V33.72C144.213 32.6533 145.205 31.9067 146.101 31.48C147.018 31.0533 147.967 30.84 148.949 30.84V33.464ZM163.867 46.072C162.907 46.5413 161.947 46.8613 160.987 47.032C160.027 47.224 159.141 47.32 158.331 47.32C156.048 47.32 154.341 46.6693 153.211 45.368C152.101 44.0667 151.547 42.2853 151.547 40.024V38.104C151.547 35.9067 152.101 34.1467 153.211 32.824C154.341 31.5013 155.931 30.84 157.979 30.84C159.067 30.84 160.059 31.064 160.955 31.512C161.872 31.9387 162.597 32.6 163.131 33.496C163.685 34.3707 163.963 35.5013 163.963 36.888C163.963 37.784 163.835 38.808 163.579 39.96H154.139V40.024C154.139 41.6453 154.469 42.872 155.131 43.704C155.813 44.536 156.901 44.952 158.395 44.952C159.077 44.952 159.824 44.8667 160.635 44.696C161.467 44.5253 162.277 44.2587 163.067 43.896L163.867 46.072ZM157.979 33.144C156.741 33.144 155.803 33.5493 155.163 34.36C154.544 35.1493 154.203 36.2693 154.139 37.72H161.307C161.371 37.336 161.403 36.9733 161.403 36.632C161.403 35.4373 161.061 34.5627 160.379 34.008C159.717 33.432 158.917 33.144 157.979 33.144Z" fill="black"/>
<path d="M47.68 74V64.304H38.176V74H35.392V52.24H38.176V61.68H47.68V52.24H50.464V74H47.68ZM68.2438 74.16C67.2624 74.16 66.4731 73.936 65.8758 73.488C65.2998 73.04 64.8944 72.4853 64.6598 71.824C63.6144 72.7413 62.6651 73.392 61.8118 73.776C60.9584 74.1387 60.1051 74.32 59.2518 74.32C57.8651 74.32 56.8411 73.872 56.1798 72.976C55.5184 72.08 55.1878 70.9813 55.1878 69.68C55.1878 68.8053 55.3478 68.0267 55.6678 67.344C55.9878 66.6613 56.5318 66.128 57.2998 65.744C58.0678 65.3387 59.1024 65.136 60.4038 65.136C60.9798 65.136 61.6091 65.1787 62.2917 65.264C62.9744 65.328 63.6678 65.4133 64.3718 65.52V63.376C64.3718 62.1813 64.1051 61.3707 63.5718 60.944C63.0598 60.496 62.3024 60.272 61.2998 60.272C59.9344 60.272 58.4091 60.6453 56.7238 61.392L55.8918 59.216C56.8731 58.768 57.8118 58.4267 58.7078 58.192C59.6038 57.9573 60.5104 57.84 61.4278 57.84C62.9211 57.84 64.0624 58.0853 64.8518 58.576C65.6411 59.0667 66.1851 59.7173 66.4838 60.528C66.7824 61.3387 66.9318 62.224 66.9318 63.184V70.032C66.9318 70.5227 67.0278 70.9387 67.2198 71.28C67.4118 71.6 67.7958 71.76 68.3718 71.76H68.7238V74.16H68.2438ZM57.7798 69.648C57.7798 70.3733 57.9504 70.96 58.2918 71.408C58.6331 71.856 59.1238 72.08 59.7638 72.08C60.3184 72.08 60.9584 71.92 61.6838 71.6C62.4091 71.2587 63.3051 70.5867 64.3718 69.584V67.568C62.9211 67.3333 61.6411 67.216 60.5318 67.216C59.5504 67.216 58.8464 67.4187 58.4198 67.824C57.9931 68.2293 57.7798 68.8373 57.7798 69.648ZM104.931 58.16L99.3313 74H96.8673L91.2033 58.16H93.9233L96.5793 65.872L98.1793 70.704L99.7473 65.872L102.339 58.16H104.931ZM119.617 73.072C118.657 73.5413 117.697 73.8613 116.737 74.032C115.777 74.224 114.891 74.32 114.081 74.32C111.798 74.32 110.091 73.6693 108.961 72.368C107.851 71.0667 107.297 69.2853 107.297 67.024V65.104C107.297 62.9067 107.851 61.1467 108.961 59.824C110.091 58.5013 111.681 57.84 113.729 57.84C114.817 57.84 115.809 58.064 116.705 58.512C117.622 58.9387 118.347 59.6 118.881 60.496C119.435 61.3707 119.713 62.5013 119.713 63.888C119.713 64.784 119.585 65.808 119.329 66.96H109.889V67.024C109.889 68.6453 110.219 69.872 110.881 70.704C111.563 71.536 112.651 71.952 114.145 71.952C114.827 71.952 115.574 71.8667 116.385 71.696C117.217 71.5253 118.027 71.2587 118.817 70.896L119.617 73.072ZM113.729 60.144C112.491 60.144 111.553 60.5493 110.913 61.36C110.294 62.1493 109.953 63.2693 109.889 64.72H117.057C117.121 64.336 117.153 63.9733 117.153 63.632C117.153 62.4373 116.811 61.5627 116.129 61.008C115.467 60.432 114.667 60.144 113.729 60.144ZM131.87 60.304C131.272 60.304 130.568 60.4533 129.758 60.752C128.968 61.0507 128.008 61.6587 126.878 62.576V74H124.254V58.16H126.75V60.368C127.88 59.408 128.904 58.7467 129.822 58.384C130.76 58.0213 131.656 57.84 132.51 57.84C133.982 57.84 135.102 58.3093 135.87 59.248C136.659 60.1653 137.054 61.4773 137.054 63.184V74H134.43V63.568C134.43 61.392 133.576 60.304 131.87 60.304Z" fill="black"/>
<path d="M94.76 43.736C96.776 43.736 98.328 43.304 99.416 42.44C100.504 41.544 101.048 40.248 101.048 38.552C101.048 37.144 100.664 35.96 99.896 35C99.16 34.04 97.944 33.304 96.248 32.792L92.36 31.64C89.928 30.904 88.136 29.8 86.984 28.328C85.832 26.824 85.256 24.984 85.256 22.808C85.256 21.144 85.576 19.64 86.216 18.296C86.888 16.952 87.944 15.88 89.384 15.08C90.856 14.28 92.776 13.88 95.144 13.88C96.584 13.88 98.072 14.056 99.608 14.408C101.144 14.728 102.696 15.256 104.264 15.992L102.92 19.592C101.384 18.92 99.992 18.44 98.744 18.152C97.528 17.832 96.36 17.672 95.24 17.672C93.416 17.672 91.992 18.056 90.968 18.824C89.976 19.56 89.48 20.792 89.48 22.52C89.48 23.768 89.816 24.824 90.488 25.688C91.16 26.52 92.36 27.208 94.088 27.752L97.976 28.904C102.84 30.344 105.272 33.448 105.272 38.216C105.272 40.968 104.44 43.208 102.776 44.936C101.112 46.632 98.44 47.48 94.76 47.48C93.256 47.48 91.656 47.304 89.96 46.952C88.296 46.568 86.568 45.976 84.776 45.176L86.072 41.624C87.768 42.392 89.288 42.936 90.632 43.256C92.008 43.576 93.384 43.736 94.76 43.736Z" fill="#DA2F2F"/>
<path d="M5.088 47V14.36H14.688C17.824 14.36 20.128 15.128 21.6 16.664C23.104 18.168 23.856 20.2 23.856 22.76V23.816C23.856 25.224 23.536 26.472 22.896 27.56C22.256 28.648 21.328 29.512 20.112 30.152C21.808 30.696 23.088 31.592 23.952 32.84C24.848 34.056 25.296 35.528 25.296 37.256V38.312C25.296 40.936 24.528 43.048 22.992 44.648C21.488 46.216 19.12 47 15.888 47H5.088ZM14.688 18.2H9.264V28.52H14.688C16.288 28.52 17.488 28.12 18.288 27.32C19.12 26.488 19.536 25.352 19.536 23.912V22.76C19.536 21.352 19.12 20.248 18.288 19.448C17.488 18.616 16.288 18.2 14.688 18.2ZM15.888 32.36H9.264V43.208H15.888C17.584 43.208 18.848 42.776 19.68 41.912C20.544 41.048 20.976 39.848 20.976 38.312V37.16C20.976 35.688 20.544 34.52 19.68 33.656C18.848 32.792 17.584 32.36 15.888 32.36Z" fill="#DA2F2F"/>
<path d="M87.3721 51H73.1395C72.3069 51 71.5083 51.3409 70.9195 51.9476C70.3308 52.5543 70 53.3772 70 54.2353V72.3529C70 72.5246 70.0662 72.6891 70.1839 72.8105C70.3017 72.9318 70.4614 73 70.6279 73H85.6977C85.8642 73 86.0239 72.9318 86.1417 72.8105C86.2594 72.6891 86.3256 72.5246 86.3256 72.3529C86.3256 72.1813 86.2594 72.0167 86.1417 71.8954C86.0239 71.7741 85.8642 71.7059 85.6977 71.7059H71.2558V71.4902C71.2558 70.9754 71.4543 70.4816 71.8075 70.1176C72.1608 69.7535 72.6399 69.549 73.1395 69.549H87.3721C87.5386 69.549 87.6983 69.4808 87.8161 69.3595C87.9338 69.2382 88 69.0736 88 68.902V51.6471C88 51.4754 87.9338 51.3109 87.8161 51.1895C87.6983 51.0682 87.5386 51 87.3721 51ZM86.7442 68.2549H73.1395C72.4601 68.2539 71.7988 68.481 71.2558 68.902V54.2353C71.2558 53.7205 71.4543 53.2267 71.8075 52.8627C72.1608 52.4986 72.6399 52.2941 73.1395 52.2941H86.7442V68.2549Z" fill="black"/>
</svg>
